<svg t="1724171247230" class="icon" viewBox="0 0 1024 1024" version="1.1"
  xmlns="http://www.w3.org/2000/svg" p-id="2064" width="200" height="200">
  <path fill="currentColor" d="M149.312 202.688h725.376c5.888 0 10.624 4.736 10.624 10.624V640a10.688 10.688 0 0 1-10.624 10.688H149.312A10.688 10.688 0 0 1 138.688 640V213.312c0-5.888 4.736-10.624 10.624-10.624z m501.376 512h224c41.216 0 74.624-33.472 74.624-74.688V213.312c0-41.216-33.408-74.624-74.624-74.624H149.312c-41.216 0-74.624 33.408-74.624 74.624V640c0 41.216 33.408 74.688 74.624 74.688h224v128H298.688a32 32 0 1 0 0 64h426.624a32 32 0 0 0 0-64h-74.624v-128z m-64 0v128H437.312v-128h149.376zM437.312 576a32 32 0 0 1 32-32h85.376a32 32 0 0 1 0 64H469.312a32 32 0 0 1-32-32z" p-id="2065"></path>
</svg>
