<svg t="1723975273170" class="icon" viewBox="0 0 1024 1024" version="1.1"
  xmlns="http://www.w3.org/2000/svg" p-id="2359" width="200" height="200">
  <path d="M376.96 70.464a32 32 0 0 1 28.352-17.152h384a32 32 0 0 1 25.152 51.84L620.608 352h254.08a32 32 0 0 1 23.552 53.76l-512 554.624a32 32 0 0 1-54.4-29.888l96-365.184H170.752a32 32 0 0 1-28.352-46.848l234.624-448z m47.744 46.848l-201.152 384h245.76a32 32 0 0 1 30.976 40.128L426.24 822.528 801.6 416H554.688a32 32 0 0 1-25.216-51.776l194.048-246.912h-298.88z" p-id="2360"></path>
</svg>
