<svg t="1723972962578" class="icon" viewBox="0 0 1024 1024" version="1.1"
  xmlns="http://www.w3.org/2000/svg" p-id="2206" width="200" height="200">
  <path d="M363.968 62.72a32 32 0 0 0-45.248 45.248L434.752 224h-349.44a32 32 0 0 0-32 32v170.688a32 32 0 0 0 32 32h32v480a32 32 0 0 0 32 32h725.376a32 32 0 0 0 32-32v-480h32a32 32 0 0 0 32-32V256a32 32 0 0 0-32-32h-349.44l116.032-116.032a32 32 0 0 0-45.248-45.248L512 210.752 363.968 62.72z m147.2 225.28h395.52v106.688H117.312V288h393.856z m331.52 170.688v448H544v-448h298.688z m-362.688 0v448H181.312v-448H480z" p-id="2207"></path>
</svg>
