<svg t="1723954861938" class="icon" viewBox="0 0 1024 1024" version="1.1"
  xmlns="http://www.w3.org/2000/svg" p-id="2586" width="200" height="200" style="transform: scaleX(-1)">
  <path fill="currentColor" d="M441.216 119.68a32 32 0 0 1 19.968 29.632V335.36c130.368 8.064 242.88 59.648 336.192 154.24 100.352 101.632 157.888 228.352 173.12 378.432a32 32 0 0 1-56.576 23.488c-103.68-126.528-190.336-191.104-259.968-205.888-67.584-14.336-131.84-17.92-192.768-11.2v200.32a32 32 0 0 1-55.488 21.696L61.824 524.032a32 32 0 0 1 0.64-44.032l343.808-353.024a32 32 0 0 1 34.944-7.296zM129.408 502.912l267.776 289.92v-146.368a32 32 0 0 1 26.88-31.552c77.568-12.736 158.72-9.856 243.2 8.064 69.312 14.72 142.208 63.424 218.688 141.056a529.024 529.024 0 0 0-134.144-229.568l20.864-20.544-20.864 20.544c-88.832-90.048-195.84-135.232-322.88-136.256a32 32 0 0 1-31.744-32V228.032L129.408 502.912z" p-id="2587"></path>
</svg>
