<svg t="1723968858854" class="icon" viewBox="0 0 1024 1024" version="1.1"
  xmlns="http://www.w3.org/2000/svg" p-id="2059" width="200" height="200">
  <path d="M96 128a32 32 0 0 1 32-32h298.688a32 32 0 0 1 32 32v298.688a32 32 0 0 1-32 32H128a32 32 0 0 1-32-32V128z m64 32v234.688h234.688V160H160zM96 597.312a32 32 0 0 1 32-32h298.688a32 32 0 0 1 32 32V896a32 32 0 0 1-32 32H128a32 32 0 0 1-32-32V597.312z m64 32V864h234.688V629.312H160zM565.312 128a32 32 0 0 1 32-32H896a32 32 0 0 1 32 32v298.688a32 32 0 0 1-32 32H597.312a32 32 0 0 1-32-32V128z m64 32v234.688H864V160H629.312zM618.688 565.312a32 32 0 0 1 32 32V896a32 32 0 1 1-64 0V597.312a32 32 0 0 1 32-32zM874.688 565.312a32 32 0 0 1 32 32V896a32 32 0 1 1-64 0V597.312a32 32 0 0 1 32-32z" p-id="2060"></path>
</svg>
