<svg t="1723955796315" class="icon" viewBox="0 0 1024 1024" version="1.1"
  xmlns="http://www.w3.org/2000/svg" p-id="3191" width="200" height="200">
  <path fill="currentColor" d="M896 800.64h-85.76a415.365 415.365 0 0 0 117.76-288 416.64 416.64 0 0 0-416-416 416.64 416.64 0 0 0-416 416 418.565 418.565 0 0 0 110.248 280.956A418.566 418.566 0 0 0 476.8 927.36a32 32 0 0 0 32-32A32 32 0 0 0 480.64 864a354.563 354.563 0 0 1-320-351.36 352 352 0 0 1 352-352 352.64 352.64 0 0 1 352 352 355.844 355.844 0 0 1-96 240.64V672a32.002 32.002 0 0 0-32-32 32.64 32.64 0 0 0-32 32v191a1 1 0 0 0 1 1h191a32 32 0 0 0 32-32A31.362 31.362 0 0 0 896 800.64z" fill="#1C1F23" p-id="3192"></path>
</svg>
