<svg t="1723955710366" class="icon" viewBox="0 0 1024 1024" version="1.1"
  xmlns="http://www.w3.org/2000/svg" p-id="2884" width="200" height="200">
  <path d="M77.77 431.834l-0.045 0.08c-13.781 23.584-19.698 52.65-19.698 79.926 0 27.325 5.938 56.453 19.66 80.18l135.678 234.664c0.371 0.642 0.764 1.271 1.179 1.886l0.698 1.034c13.807 20.454 25.18 37.304 35.449 50.267 10.611 13.393 21.771 24.933 36.015 33.167 14.564 8.418 29.734 11.884 45.91 13.475 15.137 1.488 33.355 1.488 54.61 1.487h249.12c21.364 0.001 39.656 0.001 54.846-1.486 16.219-1.587 31.424-5.046 46.015-13.456 14.282-8.232 25.464-19.776 36.09-33.178 10.28-12.968 21.655-29.821 35.459-50.271l0.701-1.039a31.97 31.97 0 0 0 1.18-1.886l135.68-234.667c13.721-23.727 19.657-52.852 19.657-80.177 0-27.275-5.916-56.341-19.696-79.924l-0.047-0.082-135.594-234.518a31.97 31.97 0 0 0-1.18-1.886l-0.697-1.032c-13.807-20.456-25.18-37.306-35.45-50.269-10.61-13.393-21.771-24.933-36.015-33.167-14.564-8.419-29.734-11.885-45.91-13.475-15.137-1.489-33.355-1.488-54.609-1.487h-249.55c-21.255 0-39.473-0.001-54.61 1.487-16.176 1.59-31.346 5.057-45.91 13.475-14.244 8.234-25.404 19.774-36.015 33.167-10.27 12.963-21.643 29.813-35.449 50.267l-0.698 1.034a32.503 32.503 0 0 0-1.18 1.886L77.771 431.834zM133.09 559.98c-6.759-11.686-11.062-29.066-11.062-48.14 0-19.093 4.311-36.286 10.977-47.674l135.209-233.852c14.34-21.243 24.194-35.778 32.644-46.443 8.403-10.607 13.669-15.067 17.878-17.5 3.889-2.248 9.2-4.115 20.144-5.191 11.635-1.144 26.687-1.18 49.815-1.18h246.613c23.129 0 38.18 0.036 49.816 1.18 10.944 1.076 16.254 2.943 20.143 5.191 4.21 2.433 9.476 6.893 17.879 17.5 8.449 10.665 18.303 25.2 32.643 46.443l135.123 233.703 0.087 0.149c6.666 11.388 10.976 28.581 10.976 47.674 0 19.074-4.305 36.457-11.063 48.143L755.788 793.686c-14.341 21.244-24.192 35.774-32.643 46.434-8.401 10.597-13.672 15.054-17.897 17.489-3.916 2.257-9.271 4.131-20.292 5.21-11.704 1.146-26.843 1.181-50.075 1.181H388.694c-23.128 0-38.18-0.036-49.815-1.18-10.944-1.076-16.255-2.943-20.144-5.191-4.209-2.433-9.475-6.893-17.878-17.5-8.45-10.665-18.304-25.201-32.644-46.443L133.089 559.98zM352 512a159.999 159.999 0 0 0 273.137 113.137A159.999 159.999 0 0 0 512 352a159.999 159.999 0 0 0-160 160z m227.882-67.882a95.996 95.996 0 0 1 0 135.764 95.996 95.996 0 0 1-135.764 0 95.996 95.996 0 0 1 0-135.764 95.996 95.996 0 0 1 135.764 0z" fill="#1C1F23" p-id="2885"></path>
</svg>
