<svg t="1723955741667" class="icon" viewBox="0 0 1024 1024" version="1.1"
  xmlns="http://www.w3.org/2000/svg" p-id="3037" width="200" height="200">
  <path d="M668.1 374.6L448 594.8l-92.2-92.1c-12.5-12.5-32.7-12.5-45.2 0s-12.5 32.7 0 45.2l114.8 114.8c12.5 12.5 32.8 12.5 45.3 0L713.4 420c12.5-12.5 12.5-32.8 0-45.3-12.5-12.6-32.8-12.6-45.3-0.1z" fill="#1C1F23" p-id="3038"></path>
  <path d="M828.8 195.2C744.8 111.2 630.8 64 512 64c-88.6 0-175.2 26.3-248.9 75.5-73.7 49.2-131.1 119.2-165 201.1-33.9 81.9-42.8 171.9-25.5 258.8 17.3 86.9 60 166.7 122.6 229.4s142.5 105.3 229.4 122.6c86.9 17.3 177 8.4 258.8-25.5 81.9-33.9 151.8-91.3 201.1-165C933.7 687.2 960 600.6 960 512c0-118.8-47.2-232.8-131.2-316.8z m-45.3 588.3C711.5 855.5 613.8 896 512 896c-75.9 0-150.2-22.5-213.3-64.7-63.2-42.2-112.4-102.2-141.5-172.3-29.1-70.2-36.7-147.4-21.9-221.9 14.8-74.5 51.4-142.9 105.1-196.6 53.7-53.7 122.1-90.3 196.6-105.1 74.5-14.8 151.7-7.2 221.9 21.9 70.2 29.1 130.1 78.3 172.3 141.4C873.5 361.8 896 436.1 896 512c0 101.8-40.5 199.5-112.5 271.5z" fill="#1C1F23" p-id="3039"></path>
</svg>
