<svg t="1723990690799" class="icon" viewBox="0 0 1024 1024" version="1.1"
  xmlns="http://www.w3.org/2000/svg" p-id="3410" width="200" height="200">
  <path d="M835.84 187.52A455.68 455.68 0 0 0 512 53.12c-122.88 0-238.08 48-324.48 134.4A456 456 0 0 0 53.12 512c0 122.88 48 237.44 134.4 324.48A456 456 0 0 0 512 970.88c122.24 0 237.44-48 324.48-134.4A456 456 0 0 0 970.88 512a456.64 456.64 0 0 0-135.04-324.48z m-88.32 218.88l-256 256a32.64 32.64 0 0 1-22.4 9.6 32.64 32.64 0 0 1-22.4-9.6l-128-128c-12.8-12.8-12.8-32.64 0-45.44 12.8-12.8 32.64-12.8 45.44 0l104.96 105.6 233.6-233.6c12.8-12.8 32.64-12.8 45.44 0 12.8 12.8 12.16 33.28-0.64 45.44z" p-id="3411" fill="currentColor"></path>
</svg>
